%TF.GenerationSoftware,KiCad,Pcbnew,9.0.0*%
%TF.CreationDate,2026-10-05T15:07:24-06:00*%
%TF.ProjectId,MotorDriverPCB,4d6f746f-7244-4726-9976-65725043422e,rev?*%
%TF.SameCoordinates,Original*%
%TF.FileFunction,Copper,L2,Bot*%
%TF.FilePolarity,Positive*%
%FSLAX46Y46*%
G04 Gerber Fmt 4.6, Leading zero omitted, Abs format (unit mm)*
G04 Created by KiCad (PCBNEW 9.0.0) date 2026-10-05 15:07:24*
%MOMM*%
%LPD*%
G01*
G04 APERTURE LIST*
G04 Aperture macros list*
%AMRoundRect*
0 Rectangle with rounded corners*
0 $1 Rounding radius*
0 $2 $3 $4 $5 $6 $7 $8 $9 X,Y pos of 4 corners*
0 Add a 4 corners polygon primitive as box body*
4,1,4,$2,$3,$4,$5,$6,$7,$8,$9,$2,$3,0*
0 Add four circle primitives for the rounded corners*
1,1,$1+$1,$2,$3*
1,1,$1+$1,$4,$5*
1,1,$1+$1,$6,$7*
1,1,$1+$1,$8,$9*
0 Add four rect primitives between the rounded corners*
20,1,$1+$1,$2,$3,$4,$5,0*
20,1,$1+$1,$4,$5,$6,$7,0*
20,1,$1+$1,$6,$7,$8,$9,0*
20,1,$1+$1,$8,$9,$2,$3,0*%
G04 Aperture macros list end*
%TA.AperFunction,ComponentPad*%
%ADD10R,1.600000X1.600000*%
%TD*%
%TA.AperFunction,ComponentPad*%
%ADD11C,1.600000*%
%TD*%
%TA.AperFunction,ComponentPad*%
%ADD12RoundRect,0.250000X-0.550000X0.550000X-0.550000X-0.550000X0.550000X-0.550000X0.550000X0.550000X0*%
%TD*%
%TA.AperFunction,ComponentPad*%
%ADD13O,1.700000X1.700000*%
%TD*%
%TA.AperFunction,ComponentPad*%
%ADD14R,1.700000X1.700000*%
%TD*%
%TA.AperFunction,ComponentPad*%
%ADD15C,1.800000*%
%TD*%
%TA.AperFunction,Conductor*%
%ADD16C,0.300000*%
%TD*%
G04 APERTURE END LIST*
D10*
%TO.P,SW_ARDUINO1,1,A*%
%TO.N,/VIN*%
X114000000Y-112500000D03*
D11*
%TO.P,SW_ARDUINO1,2,B*%
%TO.N,/BUCK*%
X111460000Y-112500000D03*
%TO.P,SW_ARDUINO1,3,C*%
%TO.N,unconnected-(SW_ARDUINO1-C-Pad3)*%
X108920000Y-112500000D03*
%TD*%
%TO.P,DRIVER1,16,VCC1*%
%TO.N,/BUCK*%
X114540000Y-91120000D03*
%TO.P,DRIVER1,15,4A*%
%TO.N,/REV2*%
X112000000Y-91120000D03*
%TO.P,DRIVER1,14,4Y*%
%TO.N,/M2R*%
X109460000Y-91120000D03*
%TO.P,DRIVER1,13,GND*%
%TO.N,GND*%
X106920000Y-91120000D03*
%TO.P,DRIVER1,12,GND*%
X104380000Y-91120000D03*
%TO.P,DRIVER1,11,3Y*%
%TO.N,/M2F*%
X101840000Y-91120000D03*
%TO.P,DRIVER1,10,3A*%
%TO.N,/FOR2*%
X99300000Y-91120000D03*
%TO.P,DRIVER1,9,EN3\u002C4*%
%TO.N,/BUCK*%
X96760000Y-91120000D03*
%TO.P,DRIVER1,8,VCC2*%
%TO.N,/BAT_SW*%
X96760000Y-83500000D03*
%TO.P,DRIVER1,7,2A*%
%TO.N,/REV1*%
X99300000Y-83500000D03*
%TO.P,DRIVER1,6,2Y*%
%TO.N,/M1R*%
X101840000Y-83500000D03*
%TO.P,DRIVER1,5,GND*%
%TO.N,GND*%
X104380000Y-83500000D03*
%TO.P,DRIVER1,4,GND*%
X106920000Y-83500000D03*
%TO.P,DRIVER1,3,1Y*%
%TO.N,/M1F*%
X109460000Y-83500000D03*
%TO.P,DRIVER1,2,1A*%
%TO.N,/FOR1*%
X112000000Y-83500000D03*
D12*
%TO.P,DRIVER1,1,EN1\u002C2*%
%TO.N,/BUCK*%
X114540000Y-83500000D03*
%TD*%
D13*
%TO.P,M1,6,Pin_6*%
%TO.N,/M1R*%
X107975000Y-77735000D03*
%TO.P,M1,5,Pin_5*%
%TO.N,/3V3*%
X110515000Y-77735000D03*
%TO.P,M1,4,Pin_4*%
%TO.N,/B1*%
X113055000Y-77735000D03*
%TO.P,M1,3,Pin_3*%
%TO.N,/A1*%
X113055000Y-80275000D03*
%TO.P,M1,2,Pin_2*%
%TO.N,GND*%
X110515000Y-80275000D03*
D14*
%TO.P,M1,1,Pin_1*%
%TO.N,/M1F*%
X107975000Y-80275000D03*
%TD*%
D12*
%TO.P,DRIVER2,1,EN1\u002C2*%
%TO.N,/BUCK*%
X164390000Y-90195000D03*
D11*
%TO.P,DRIVER2,2,1A*%
%TO.N,/FOR3*%
X161850000Y-90195000D03*
%TO.P,DRIVER2,3,1Y*%
%TO.N,/M3F*%
X159310000Y-90195000D03*
%TO.P,DRIVER2,4,GND*%
%TO.N,GND*%
X156770000Y-90195000D03*
%TO.P,DRIVER2,5,GND*%
X154230000Y-90195000D03*
%TO.P,DRIVER2,6,2Y*%
%TO.N,/M3R*%
X151690000Y-90195000D03*
%TO.P,DRIVER2,7,2A*%
%TO.N,/REV3*%
X149150000Y-90195000D03*
%TO.P,DRIVER2,8,VCC2*%
%TO.N,/BAT_SW*%
X146610000Y-90195000D03*
%TO.P,DRIVER2,9,EN3\u002C4*%
%TO.N,unconnected-(DRIVER2-EN3\u002C4-Pad9)*%
X146610000Y-97815000D03*
%TO.P,DRIVER2,10,3A*%
%TO.N,unconnected-(DRIVER2-3A-Pad10)*%
X149150000Y-97815000D03*
%TO.P,DRIVER2,11,3Y*%
%TO.N,unconnected-(DRIVER2-3Y-Pad11)*%
X151690000Y-97815000D03*
%TO.P,DRIVER2,12,GND*%
%TO.N,GND*%
X154230000Y-97815000D03*
%TO.P,DRIVER2,13,GND*%
X156770000Y-97815000D03*
%TO.P,DRIVER2,14,4Y*%
%TO.N,unconnected-(DRIVER2-4Y-Pad14)*%
X159310000Y-97815000D03*
%TO.P,DRIVER2,15,4A*%
%TO.N,unconnected-(DRIVER2-4A-Pad15)*%
X161850000Y-97815000D03*
%TO.P,DRIVER2,16,VCC1*%
%TO.N,/BUCK*%
X164390000Y-97815000D03*
%TD*%
D13*
%TO.P,J1,4,Pin_4*%
%TO.N,GND*%
X102500000Y-112040000D03*
%TO.P,J1,3,Pin_3*%
X99960000Y-112040000D03*
%TO.P,J1,2,Pin_2*%
%TO.N,/BUCK*%
X102500000Y-109500000D03*
D14*
%TO.P,J1,1,Pin_1*%
%TO.N,/BAT*%
X99960000Y-109500000D03*
%TD*%
D11*
%TO.P,SW_BAT1,3,C*%
%TO.N,unconnected-(SW_BAT1-C-Pad3)*%
X98460000Y-103500000D03*
%TO.P,SW_BAT1,2,B*%
%TO.N,/BAT*%
X101000000Y-103500000D03*
D10*
%TO.P,SW_BAT1,1,A*%
%TO.N,/BAT_SW*%
X103540000Y-103500000D03*
%TD*%
D13*
%TO.P,BATTERY1,2,Pin_2*%
%TO.N,GND*%
X93000000Y-105040000D03*
D14*
%TO.P,BATTERY1,1,Pin_1*%
%TO.N,/BAT*%
X93000000Y-102500000D03*
%TD*%
%TO.P,M3,1,Pin_1*%
%TO.N,/M3F*%
X157850000Y-101275000D03*
D13*
%TO.P,M3,2,Pin_2*%
%TO.N,GND*%
X155310000Y-101275000D03*
%TO.P,M3,3,Pin_3*%
%TO.N,/A3*%
X152770000Y-101275000D03*
%TO.P,M3,4,Pin_4*%
%TO.N,/B3*%
X152770000Y-103815000D03*
%TO.P,M3,5,Pin_5*%
%TO.N,/3V3*%
X155310000Y-103815000D03*
%TO.P,M3,6,Pin_6*%
%TO.N,/M3R*%
X157850000Y-103815000D03*
%TD*%
D15*
%TO.P,U1,1,VCC*%
%TO.N,/3V3*%
X149000000Y-68460000D03*
%TO.P,U1,2,GND*%
%TO.N,GND*%
X149000000Y-71000000D03*
%TO.P,U1,3,SCL*%
%TO.N,/SCL*%
X149000000Y-73540000D03*
%TO.P,U1,4,SDA*%
%TO.N,/SDA*%
X149000000Y-76080000D03*
%TO.P,U1,5,XDA*%
%TO.N,unconnected-(U1-XDA-Pad5)*%
X149000000Y-78620000D03*
%TO.P,U1,6,XCL*%
%TO.N,unconnected-(U1-XCL-Pad6)*%
X149000000Y-81160000D03*
%TO.P,U1,7,ADO*%
%TO.N,unconnected-(U1-ADO-Pad7)*%
X149000000Y-83700000D03*
%TO.P,U1,8,INT*%
%TO.N,unconnected-(U1-INT-Pad8)*%
X149000000Y-86240000D03*
%TD*%
%TO.P,ESP1,3.3v,3.3*%
%TO.N,/3V3*%
X119015000Y-68215000D03*
%TO.P,ESP1,5v,5v*%
%TO.N,/VIN*%
X119015000Y-113935000D03*
%TO.P,ESP1,EN,EN*%
%TO.N,unconnected-(ESP1-PadEN)*%
X119015000Y-70755000D03*
%TO.P,ESP1,GND,GND*%
%TO.N,GND*%
X119015000Y-101235000D03*
X141875000Y-68215000D03*
X141875000Y-83455000D03*
%TO.P,ESP1,P0,GPIO0*%
%TO.N,unconnected-(ESP1-GPIO0-PadP0)*%
X141875000Y-101235000D03*
%TO.P,ESP1,P1,TXD*%
%TO.N,unconnected-(ESP1-TXD-PadP1)*%
X141875000Y-75835000D03*
%TO.P,ESP1,P2,GPIO2*%
%TO.N,unconnected-(ESP1-GPIO2-PadP2)*%
X141875000Y-103775000D03*
%TO.P,ESP1,P3,RXD*%
%TO.N,unconnected-(ESP1-RXD-PadP3)*%
X141875000Y-78375000D03*
%TO.P,ESP1,P4,GPIO4*%
%TO.N,unconnected-(ESP1-GPIO4-PadP4)*%
X141875000Y-98695000D03*
%TO.P,ESP1,P5,GPIO5*%
%TO.N,unconnected-(ESP1-GPIO5-PadP5)*%
X141875000Y-91075000D03*
%TO.P,ESP1,P6,CLK*%
%TO.N,unconnected-(ESP1-CLK-PadP6)*%
X141875000Y-113935000D03*
%TO.P,ESP1,P7,SD0*%
%TO.N,unconnected-(ESP1-SD0-PadP7)*%
X141875000Y-111395000D03*
%TO.P,ESP1,P8,SD1*%
%TO.N,unconnected-(ESP1-SD1-PadP8)*%
X141875000Y-108855000D03*
%TO.P,ESP1,P9,SD2*%
%TO.N,unconnected-(ESP1-SD2-PadP9)*%
X119015000Y-106315000D03*
%TO.P,ESP1,P10,SD3*%
%TO.N,unconnected-(ESP1-SD3-PadP10)*%
X119015000Y-108855000D03*
%TO.P,ESP1,P11,CMD*%
%TO.N,unconnected-(ESP1-CMD-PadP11)*%
X119015000Y-111395000D03*
%TO.P,ESP1,P12,GPIO12*%
%TO.N,unconnected-(ESP1-GPIO12-PadP12)*%
X119015000Y-98695000D03*
%TO.P,ESP1,P13,GPIO13*%
%TO.N,unconnected-(ESP1-GPIO13-PadP13)*%
X119015000Y-103775000D03*
%TO.P,ESP1,P14,GPIO15*%
%TO.N,/A2*%
X119015000Y-96155000D03*
%TO.P,ESP1,P15,GPIO15*%
%TO.N,unconnected-(ESP1-GPIO15-PadP15)*%
X141875000Y-106315000D03*
%TO.P,ESP1,P16,GPIO16*%
%TO.N,/B3*%
X141875000Y-96155000D03*
%TO.P,ESP1,P17,GPIO17*%
%TO.N,/A3*%
X141875000Y-93615000D03*
%TO.P,ESP1,P18,GPIO18*%
%TO.N,/REV3*%
X141875000Y-88535000D03*
%TO.P,ESP1,P19,GPIO19*%
%TO.N,/FOR3*%
X141875000Y-85995000D03*
%TO.P,ESP1,P21,GPIO21*%
%TO.N,/SDA*%
X141875000Y-80915000D03*
%TO.P,ESP1,P22,GPIO22*%
%TO.N,/SCL*%
X141875000Y-73295000D03*
%TO.P,ESP1,P23,GPIO23*%
%TO.N,unconnected-(ESP1-GPIO23-PadP23)*%
X141875000Y-70755000D03*
%TO.P,ESP1,P25,GPIO25*%
%TO.N,/FOR2*%
X119015000Y-88535000D03*
%TO.P,ESP1,P26,GPIO26*%
%TO.N,/REV2*%
X119015000Y-91075000D03*
%TO.P,ESP1,P27,GPIO27*%
%TO.N,/B2*%
X119015000Y-93615000D03*
%TO.P,ESP1,P32,GPIO32*%
%TO.N,/FOR1*%
X119015000Y-83455000D03*
%TO.P,ESP1,P33,GPIO33*%
%TO.N,/REV1*%
X119015000Y-85995000D03*
%TO.P,ESP1,P34,GPIO34*%
%TO.N,/B1*%
X119015000Y-78375000D03*
%TO.P,ESP1,P35,GPIO35*%
%TO.N,/A1*%
X119015000Y-80915000D03*
%TO.P,ESP1,P36,SP*%
%TO.N,unconnected-(ESP1-SP-PadP36)*%
X119015000Y-73295000D03*
%TO.P,ESP1,P39,SN*%
%TO.N,unconnected-(ESP1-SN-PadP39)*%
X119015000Y-75835000D03*
%TD*%
D13*
%TO.P,M2,6,Pin_6*%
%TO.N,/M2R*%
X104460000Y-95000000D03*
%TO.P,M2,5,Pin_5*%
%TO.N,/3V3*%
X107000000Y-95000000D03*
%TO.P,M2,4,Pin_4*%
%TO.N,/B2*%
X109540000Y-95000000D03*
%TO.P,M2,3,Pin_3*%
%TO.N,/A2*%
X109540000Y-97540000D03*
%TO.P,M2,2,Pin_2*%
%TO.N,GND*%
X107000000Y-97540000D03*
D14*
%TO.P,M2,1,Pin_1*%
%TO.N,/M2F*%
X104460000Y-97540000D03*
%TD*%
D16*
%TO.N,/BAT*%
X93000000Y-103000000D02*
X93000000Y-102500000D01*
X99500000Y-109500000D02*
X93000000Y-103000000D01*
%TO.N,GND*%
X93000000Y-105040000D02*
X99960000Y-112000000D01*
%TO.N,/BAT*%
X99960000Y-109500000D02*
X99500000Y-109500000D01*
%TO.N,GND*%
X99960000Y-112000000D02*
X99960000Y-112040000D01*
%TO.N,/M2R*%
X103229000Y-90643240D02*
X103903240Y-89969000D01*
X103229000Y-93769000D02*
X103229000Y-90643240D01*
X108309000Y-89969000D02*
X109460000Y-91120000D01*
X104460000Y-95000000D02*
X103229000Y-93769000D01*
X103903240Y-89969000D02*
X108309000Y-89969000D01*
%TO.N,GND*%
X106147000Y-115687000D02*
X102500000Y-112040000D01*
X149093511Y-115687000D02*
X106147000Y-115687000D01*
X165541000Y-83231818D02*
X165541000Y-99239511D01*
X149518182Y-67209000D02*
X165541000Y-83231818D01*
X141875000Y-68215000D02*
X142881000Y-67209000D01*
X142881000Y-67209000D02*
X149518182Y-67209000D01*
X165541000Y-99239511D02*
X149093511Y-115687000D01*
%TO.N,/BUCK*%
X104000000Y-111000000D02*
X102500000Y-109500000D01*
X109960000Y-111000000D02*
X104000000Y-111000000D01*
X111460000Y-112500000D02*
X109960000Y-111000000D01*
%TO.N,/BAT_SW*%
X144441000Y-92364000D02*
X146610000Y-90195000D01*
X140636000Y-92364000D02*
X144441000Y-92364000D01*
X139000000Y-94000000D02*
X140636000Y-92364000D01*
X139000000Y-97222818D02*
X139000000Y-94000000D01*
X121036818Y-115186000D02*
X139000000Y-97222818D01*
X107344471Y-115186000D02*
X121036818Y-115186000D01*
X102997471Y-110839000D02*
X107344471Y-115186000D01*
X102002529Y-110839000D02*
X102997471Y-110839000D01*
X101299000Y-110135471D02*
X102002529Y-110839000D01*
X101299000Y-105741000D02*
X101299000Y-110135471D01*
X103540000Y-103500000D02*
X101299000Y-105741000D01*
%TO.N,GND*%
X99960000Y-112040000D02*
X102500000Y-112040000D01*
%TO.N,/VIN*%
X114000000Y-112500000D02*
X117580000Y-112500000D01*
X117580000Y-112500000D02*
X119015000Y-113935000D01*
%TO.N,/BUCK*%
X142393182Y-89786000D02*
X128981000Y-89786000D01*
X128981000Y-89786000D02*
X120767000Y-98000000D01*
X143143182Y-89036000D02*
X142393182Y-89786000D01*
X147078760Y-89036000D02*
X143143182Y-89036000D01*
X147761000Y-89718240D02*
X147078760Y-89036000D01*
X147761000Y-92020240D02*
X147761000Y-89718240D01*
X150301000Y-94560240D02*
X147761000Y-92020240D01*
X150301000Y-98291760D02*
X150301000Y-94560240D01*
X150975240Y-98966000D02*
X150301000Y-98291760D01*
X152159471Y-98966000D02*
X150975240Y-98966000D01*
X153971000Y-100777529D02*
X152159471Y-98966000D01*
X153971000Y-104174471D02*
X153971000Y-100777529D01*
X155313529Y-105517000D02*
X153971000Y-104174471D01*
X158554991Y-105517000D02*
X155313529Y-105517000D01*
X164390000Y-99681991D02*
X158554991Y-105517000D01*
X164390000Y-90195000D02*
X164390000Y-99681991D01*
X120767000Y-98000000D02*
X120767000Y-93559818D01*
%TO.N,/BAT_SW*%
X95609000Y-84651000D02*
X96760000Y-83500000D01*
X95609000Y-95569000D02*
X95609000Y-84651000D01*
X103540000Y-103500000D02*
X95609000Y-95569000D01*
%TO.N,/BAT*%
X99960000Y-104540000D02*
X99960000Y-109500000D01*
X101000000Y-103500000D02*
X99960000Y-104540000D01*
%TO.N,GND*%
X117944818Y-79074000D02*
X118534818Y-79664000D01*
X111716000Y-79074000D02*
X117944818Y-79074000D01*
X110515000Y-80275000D02*
X111716000Y-79074000D01*
X138788000Y-79664000D02*
X140624000Y-81500000D01*
X140624000Y-81500000D02*
X140624000Y-72776818D01*
X118534818Y-79664000D02*
X138788000Y-79664000D01*
X140624000Y-86513182D02*
X140624000Y-84706000D01*
X142393182Y-87284000D02*
X141394818Y-87284000D01*
X140624000Y-84706000D02*
X141875000Y-83455000D01*
X143109182Y-88000000D02*
X142393182Y-87284000D01*
X152035000Y-88000000D02*
X143109182Y-88000000D01*
X154230000Y-90195000D02*
X152035000Y-88000000D01*
X141394818Y-87284000D02*
X140624000Y-86513182D01*
X141356818Y-72044000D02*
X147956000Y-72044000D01*
X140624000Y-72776818D02*
X141356818Y-72044000D01*
X140624000Y-82204000D02*
X140624000Y-81500000D01*
X147956000Y-72044000D02*
X149000000Y-71000000D01*
X141875000Y-83455000D02*
X140624000Y-82204000D01*
%TO.N,/BUCK*%
X111460000Y-106946000D02*
X107000000Y-102486000D01*
X111460000Y-112500000D02*
X111460000Y-106946000D01*
X107000000Y-102486000D02*
X119533182Y-102486000D01*
%TO.N,GND*%
X155310000Y-99275000D02*
X156770000Y-97815000D01*
X155310000Y-101275000D02*
X155310000Y-99275000D01*
%TO.N,/M3R*%
X157921000Y-98291760D02*
X157921000Y-96426000D01*
X156649000Y-102614000D02*
X156649000Y-99563760D01*
X156649000Y-99563760D02*
X157921000Y-98291760D01*
X157850000Y-103815000D02*
X156649000Y-102614000D01*
X157921000Y-96426000D02*
X151690000Y-90195000D01*
%TO.N,/M3F*%
X160461000Y-98664000D02*
X157850000Y-101275000D01*
X160461000Y-91346000D02*
X160461000Y-98664000D01*
X159310000Y-90195000D02*
X160461000Y-91346000D01*
%TO.N,/SDA*%
X144165000Y-80915000D02*
X141875000Y-80915000D01*
X149000000Y-76080000D02*
X144165000Y-80915000D01*
%TO.N,/3V3*%
X147994000Y-69466000D02*
X120266000Y-69466000D01*
%TO.N,/BUCK*%
X164390000Y-90195000D02*
X164390000Y-97815000D01*
%TO.N,/3V3*%
X120266000Y-69466000D02*
X119015000Y-68215000D01*
X149000000Y-68460000D02*
X147994000Y-69466000D01*
%TO.N,/SCL*%
X142120000Y-73540000D02*
X141875000Y-73295000D01*
X149000000Y-73540000D02*
X142120000Y-73540000D01*
%TO.N,/FOR3*%
X159146000Y-87491000D02*
X161850000Y-90195000D01*
X143371000Y-87491000D02*
X159146000Y-87491000D01*
X141875000Y-85995000D02*
X143371000Y-87491000D01*
%TO.N,/REV3*%
X147490000Y-88535000D02*
X149150000Y-90195000D01*
X141875000Y-88535000D02*
X147490000Y-88535000D01*
%TO.N,/B3*%
X149535000Y-103815000D02*
X141875000Y-96155000D01*
X152770000Y-103815000D02*
X149535000Y-103815000D01*
%TO.N,/A3*%
X144037760Y-93615000D02*
X141875000Y-93615000D01*
X147761000Y-97338240D02*
X144037760Y-93615000D01*
X147761000Y-98291760D02*
X147761000Y-97338240D01*
X150744240Y-101275000D02*
X147761000Y-98291760D01*
X152770000Y-101275000D02*
X150744240Y-101275000D01*
%TO.N,GND*%
X156770000Y-97815000D02*
X154230000Y-97815000D01*
X156770000Y-90195000D02*
X154230000Y-90195000D01*
%TO.N,/3V3*%
X110515000Y-77735000D02*
X110515000Y-76715000D01*
X110515000Y-76715000D02*
X119015000Y-68215000D01*
%TO.N,/BUCK*%
X120767000Y-93559818D02*
X119533182Y-92326000D01*
X120767000Y-101252182D02*
X120767000Y-98000000D01*
X119533182Y-102486000D02*
X120767000Y-101252182D01*
X96760000Y-92950520D02*
X106295480Y-102486000D01*
X96760000Y-91120000D02*
X96760000Y-92950520D01*
X106295480Y-102486000D02*
X107000000Y-102486000D01*
%TO.N,GND*%
X120266000Y-99984000D02*
X119015000Y-101235000D01*
X120266000Y-95636818D02*
X120266000Y-99984000D01*
X119533182Y-94904000D02*
X120266000Y-95636818D01*
X111467480Y-94904000D02*
X119533182Y-94904000D01*
X110170480Y-96201000D02*
X111467480Y-94904000D01*
X109042529Y-96201000D02*
X110170480Y-96201000D01*
X108299000Y-95457471D02*
X109042529Y-96201000D01*
X108299000Y-93799000D02*
X108299000Y-95457471D01*
X107500000Y-93000000D02*
X108299000Y-93799000D01*
X105799000Y-93000000D02*
X107500000Y-93000000D01*
X105799000Y-96339000D02*
X105799000Y-93000000D01*
%TO.N,/3V3*%
X98149000Y-83023240D02*
X104638240Y-76534000D01*
X98149000Y-93631000D02*
X98149000Y-83023240D01*
X103259000Y-98741000D02*
X98149000Y-93631000D01*
X107497471Y-98741000D02*
X103259000Y-98741000D01*
X104638240Y-76534000D02*
X109314000Y-76534000D01*
X108201000Y-98037471D02*
X107497471Y-98741000D01*
X108201000Y-96201000D02*
X108201000Y-98037471D01*
X109314000Y-76534000D02*
X110515000Y-77735000D01*
X107000000Y-95000000D02*
X108201000Y-96201000D01*
%TO.N,GND*%
X104380000Y-83500000D02*
X106920000Y-83500000D01*
X105501000Y-92241000D02*
X104380000Y-91120000D01*
X105799000Y-92241000D02*
X105501000Y-92241000D01*
X105799000Y-92241000D02*
X106920000Y-91120000D01*
X105799000Y-93000000D02*
X105799000Y-92241000D01*
X107000000Y-97540000D02*
X105799000Y-96339000D01*
%TO.N,/A2*%
X110925000Y-96155000D02*
X119015000Y-96155000D01*
X109540000Y-97540000D02*
X110925000Y-96155000D01*
%TO.N,/B2*%
X109540000Y-95000000D02*
X110925000Y-93615000D01*
X110925000Y-93615000D02*
X119015000Y-93615000D01*
%TO.N,/M2F*%
X101840000Y-94920000D02*
X101840000Y-91120000D01*
X104460000Y-97540000D02*
X101840000Y-94920000D01*
%TO.N,/BUCK*%
X115836000Y-82204000D02*
X114540000Y-83500000D01*
X119533182Y-82204000D02*
X115836000Y-82204000D01*
X120266000Y-91593182D02*
X120266000Y-82936818D01*
X119533182Y-92326000D02*
X120266000Y-91593182D01*
X114540000Y-91120000D02*
X115746000Y-92326000D01*
X115746000Y-92326000D02*
X119533182Y-92326000D01*
X120266000Y-82936818D02*
X119533182Y-82204000D01*
%TO.N,/FOR2*%
X101885000Y-88535000D02*
X119015000Y-88535000D01*
X99300000Y-91120000D02*
X101885000Y-88535000D01*
%TO.N,/REV2*%
X117909000Y-89969000D02*
X119015000Y-91075000D01*
X113151000Y-89969000D02*
X117909000Y-89969000D01*
X112000000Y-91120000D02*
X113151000Y-89969000D01*
%TO.N,/REV1*%
X101795000Y-85995000D02*
X119015000Y-85995000D01*
X99300000Y-83500000D02*
X101795000Y-85995000D01*
%TO.N,/FOR1*%
X117819000Y-84651000D02*
X119015000Y-83455000D01*
X113151000Y-84651000D02*
X117819000Y-84651000D01*
X112000000Y-83500000D02*
X113151000Y-84651000D01*
%TO.N,/M1R*%
X102210000Y-83500000D02*
X101840000Y-83500000D01*
X107975000Y-77735000D02*
X102210000Y-83500000D01*
%TO.N,GND*%
X110611000Y-83976760D02*
X110611000Y-80371000D01*
X109936760Y-84651000D02*
X110611000Y-83976760D01*
X108071000Y-84651000D02*
X109936760Y-84651000D01*
X106920000Y-83500000D02*
X108071000Y-84651000D01*
X110611000Y-80371000D02*
X110515000Y-80275000D01*
%TO.N,/M1F*%
X107975000Y-80275000D02*
X107975000Y-82015000D01*
X107975000Y-82015000D02*
X109460000Y-83500000D01*
%TO.N,/B1*%
X118375000Y-77735000D02*
X119015000Y-78375000D01*
X113055000Y-77735000D02*
X118375000Y-77735000D01*
%TO.N,/A1*%
X118375000Y-80275000D02*
X119015000Y-80915000D01*
X113055000Y-80275000D02*
X118375000Y-80275000D01*
%TO.N,/3V3*%
X156511000Y-105016000D02*
X155310000Y-103815000D01*
X158347471Y-105016000D02*
X156511000Y-105016000D01*
X163001000Y-100362471D02*
X158347471Y-105016000D01*
X163001000Y-82461000D02*
X163001000Y-100362471D01*
X149000000Y-68460000D02*
X163001000Y-82461000D01*
%TD*%
M02*
