M48
; DRILL file {KiCad 9.0.0} date 2026-09-28T15:31:09-0600
; FORMAT={-:-/ absolute / metric / decimal}
; #@! TF.CreationDate,2026-09-28T15:31:09-06:00
; #@! TF.GenerationSoftware,Kicad,Pcbnew,9.0.0
; #@! TF.FileFunction,Plated,1,2,PTH
FMAT,2
METRIC
; #@! TA.AperFunction,Plated,PTH,ComponentDrill
T1C0.800
; #@! TA.AperFunction,Plated,PTH,ComponentDrill
T2C1.000
%
G90
G05
T1
X121.035Y-81.73
X121.035Y-84.27
X121.035Y-86.81
X121.035Y-89.35
X121.035Y-91.89
X121.035Y-94.43
X121.035Y-96.97
X121.035Y-99.51
X121.21Y-107.03
X121.21Y-109.57
X121.21Y-112.11
X121.21Y-114.65
X121.21Y-117.19
X121.21Y-119.73
X121.21Y-122.27
X121.21Y-124.81
X128.655Y-81.73
X128.655Y-84.27
X128.655Y-86.81
X128.655Y-89.35
X128.655Y-91.89
X128.655Y-94.43
X128.655Y-96.97
X128.655Y-99.51
X128.83Y-107.03
X128.83Y-109.57
X128.83Y-112.11
X128.83Y-114.65
X128.83Y-117.19
X128.83Y-119.73
X128.83Y-122.27
X128.83Y-124.81
X138.935Y-71.516
X141.475Y-71.516
X144.016Y-71.516
X149.255Y-71.566
X151.796Y-71.566
X154.335Y-71.566
T2
X132.815Y-113.975
X132.815Y-116.515
X132.94Y-84.255
X132.94Y-86.795
X133.01Y-95.59
X133.01Y-98.13
X137.805Y-78.825
X137.805Y-81.365
X137.805Y-83.905
X137.805Y-86.445
X137.805Y-88.985
X137.805Y-91.525
X137.805Y-94.065
X137.805Y-96.605
X137.805Y-99.145
X137.805Y-101.685
X137.805Y-104.225
X137.805Y-106.765
X137.805Y-109.305
X137.805Y-111.845
X137.805Y-114.385
X137.805Y-116.925
X137.805Y-119.465
X137.805Y-122.005
X137.805Y-124.545
X159.995Y-71.895
X159.995Y-74.435
X160.665Y-78.825
X160.665Y-81.365
X160.665Y-83.905
X160.665Y-86.445
X160.665Y-88.985
X160.665Y-91.525
X160.665Y-94.065
X160.665Y-96.605
X160.665Y-99.145
X160.665Y-101.685
X160.665Y-104.225
X160.665Y-106.765
X160.665Y-109.305
X160.665Y-111.845
X160.665Y-114.385
X160.665Y-116.925
X160.665Y-119.465
X160.665Y-122.005
X160.665Y-124.545
X165.29Y-79.54
X165.29Y-82.08
X165.29Y-84.62
X165.29Y-87.16
X165.29Y-89.7
X165.29Y-92.24
X165.29Y-94.78
X165.29Y-97.32
M30
