M48
; DRILL file {KiCad 9.0.0} date 2026-10-05T15:07:27-0600
; FORMAT={-:-/ absolute / metric / decimal}
; #@! TF.CreationDate,2026-10-05T15:07:27-06:00
; #@! TF.GenerationSoftware,Kicad,Pcbnew,9.0.0
; #@! TF.FileFunction,Plated,1,2,PTH
FMAT,2
METRIC
; #@! TA.AperFunction,Plated,PTH,ComponentDrill
T1C0.800
; #@! TA.AperFunction,Plated,PTH,ComponentDrill
T2C1.000
%
G90
G05
T1
X96.76Y-83.5
X96.76Y-91.12
X98.46Y-103.5
X99.3Y-83.5
X99.3Y-91.12
X101.0Y-103.5
X101.84Y-83.5
X101.84Y-91.12
X103.54Y-103.5
X104.38Y-83.5
X104.38Y-91.12
X106.92Y-83.5
X106.92Y-91.12
X108.92Y-112.5
X109.46Y-83.5
X109.46Y-91.12
X111.46Y-112.5
X112.0Y-83.5
X112.0Y-91.12
X114.0Y-112.5
X114.54Y-83.5
X114.54Y-91.12
X146.61Y-90.195
X146.61Y-97.815
X149.15Y-90.195
X149.15Y-97.815
X151.69Y-90.195
X151.69Y-97.815
X154.23Y-90.195
X154.23Y-97.815
X156.77Y-90.195
X156.77Y-97.815
X159.31Y-90.195
X159.31Y-97.815
X161.85Y-90.195
X161.85Y-97.815
X164.39Y-90.195
X164.39Y-97.815
T2
X93.0Y-102.5
X93.0Y-105.04
X99.96Y-109.5
X99.96Y-112.04
X102.5Y-109.5
X102.5Y-112.04
X104.46Y-95.0
X104.46Y-97.54
X107.0Y-95.0
X107.0Y-97.54
X107.975Y-77.735
X107.975Y-80.275
X109.54Y-95.0
X109.54Y-97.54
X110.515Y-77.735
X110.515Y-80.275
X113.055Y-77.735
X113.055Y-80.275
X119.015Y-68.215
X119.015Y-70.755
X119.015Y-73.295
X119.015Y-75.835
X119.015Y-78.375
X119.015Y-80.915
X119.015Y-83.455
X119.015Y-85.995
X119.015Y-88.535
X119.015Y-91.075
X119.015Y-93.615
X119.015Y-96.155
X119.015Y-98.695
X119.015Y-101.235
X119.015Y-103.775
X119.015Y-106.315
X119.015Y-108.855
X119.015Y-111.395
X119.015Y-113.935
X141.875Y-68.215
X141.875Y-70.755
X141.875Y-73.295
X141.875Y-75.835
X141.875Y-78.375
X141.875Y-80.915
X141.875Y-83.455
X141.875Y-85.995
X141.875Y-88.535
X141.875Y-91.075
X141.875Y-93.615
X141.875Y-96.155
X141.875Y-98.695
X141.875Y-101.235
X141.875Y-103.775
X141.875Y-106.315
X141.875Y-108.855
X141.875Y-111.395
X141.875Y-113.935
X149.0Y-68.46
X149.0Y-71.0
X149.0Y-73.54
X149.0Y-76.08
X149.0Y-78.62
X149.0Y-81.16
X149.0Y-83.7
X149.0Y-86.24
X152.77Y-101.275
X152.77Y-103.815
X155.31Y-101.275
X155.31Y-103.815
X157.85Y-101.275
X157.85Y-103.815
M30
