%TF.GenerationSoftware,KiCad,Pcbnew,9.0.0*%
%TF.CreationDate,2026-10-05T15:07:24-06:00*%
%TF.ProjectId,MotorDriverPCB,4d6f746f-7244-4726-9976-65725043422e,rev?*%
%TF.SameCoordinates,Original*%
%TF.FileFunction,Legend,Top*%
%TF.FilePolarity,Positive*%
%FSLAX46Y46*%
G04 Gerber Fmt 4.6, Leading zero omitted, Abs format (unit mm)*
G04 Created by KiCad (PCBNEW 9.0.0) date 2026-10-05 15:07:24*
%MOMM*%
%LPD*%
G01*
G04 APERTURE LIST*
%ADD10C,0.200000*%
%ADD11C,0.100000*%
%ADD12C,0.150000*%
%ADD13C,0.120000*%
G04 APERTURE END LIST*
D10*
X108560149Y-114367219D02*
X108750625Y-114367219D01*
X108750625Y-114367219D02*
X108845863Y-114414838D01*
X108845863Y-114414838D02*
X108941101Y-114510076D01*
X108941101Y-114510076D02*
X108988720Y-114700552D01*
X108988720Y-114700552D02*
X108988720Y-115033885D01*
X108988720Y-115033885D02*
X108941101Y-115224361D01*
X108941101Y-115224361D02*
X108845863Y-115319600D01*
X108845863Y-115319600D02*
X108750625Y-115367219D01*
X108750625Y-115367219D02*
X108560149Y-115367219D01*
X108560149Y-115367219D02*
X108464911Y-115319600D01*
X108464911Y-115319600D02*
X108369673Y-115224361D01*
X108369673Y-115224361D02*
X108322054Y-115033885D01*
X108322054Y-115033885D02*
X108322054Y-114700552D01*
X108322054Y-114700552D02*
X108369673Y-114510076D01*
X108369673Y-114510076D02*
X108464911Y-114414838D01*
X108464911Y-114414838D02*
X108560149Y-114367219D01*
X113869673Y-114486266D02*
X114631578Y-114486266D01*
X103369673Y-105486266D02*
X104131578Y-105486266D01*
X98560149Y-105367219D02*
X98750625Y-105367219D01*
X98750625Y-105367219D02*
X98845863Y-105414838D01*
X98845863Y-105414838D02*
X98941101Y-105510076D01*
X98941101Y-105510076D02*
X98988720Y-105700552D01*
X98988720Y-105700552D02*
X98988720Y-106033885D01*
X98988720Y-106033885D02*
X98941101Y-106224361D01*
X98941101Y-106224361D02*
X98845863Y-106319600D01*
X98845863Y-106319600D02*
X98750625Y-106367219D01*
X98750625Y-106367219D02*
X98560149Y-106367219D01*
X98560149Y-106367219D02*
X98464911Y-106319600D01*
X98464911Y-106319600D02*
X98369673Y-106224361D01*
X98369673Y-106224361D02*
X98322054Y-106033885D01*
X98322054Y-106033885D02*
X98322054Y-105700552D01*
X98322054Y-105700552D02*
X98369673Y-105510076D01*
X98369673Y-105510076D02*
X98464911Y-105414838D01*
X98464911Y-105414838D02*
X98560149Y-105367219D01*
X104560149Y-108867219D02*
X104750625Y-108867219D01*
X104750625Y-108867219D02*
X104845863Y-108914838D01*
X104845863Y-108914838D02*
X104941101Y-109010076D01*
X104941101Y-109010076D02*
X104988720Y-109200552D01*
X104988720Y-109200552D02*
X104988720Y-109533885D01*
X104988720Y-109533885D02*
X104941101Y-109724361D01*
X104941101Y-109724361D02*
X104845863Y-109819600D01*
X104845863Y-109819600D02*
X104750625Y-109867219D01*
X104750625Y-109867219D02*
X104560149Y-109867219D01*
X104560149Y-109867219D02*
X104464911Y-109819600D01*
X104464911Y-109819600D02*
X104369673Y-109724361D01*
X104369673Y-109724361D02*
X104322054Y-109533885D01*
X104322054Y-109533885D02*
X104322054Y-109200552D01*
X104322054Y-109200552D02*
X104369673Y-109010076D01*
X104369673Y-109010076D02*
X104464911Y-108914838D01*
X104464911Y-108914838D02*
X104560149Y-108867219D01*
X97369673Y-109867219D02*
X97369673Y-108867219D01*
X97845863Y-109200552D02*
X97845863Y-109867219D01*
X97845863Y-109295790D02*
X97893482Y-109248171D01*
X97893482Y-109248171D02*
X97988720Y-109200552D01*
X97988720Y-109200552D02*
X98131577Y-109200552D01*
X98131577Y-109200552D02*
X98226815Y-109248171D01*
X98226815Y-109248171D02*
X98274434Y-109343409D01*
X98274434Y-109343409D02*
X98274434Y-109867219D01*
X87369673Y-105486266D02*
X88131578Y-105486266D01*
X87369673Y-102486266D02*
X88131578Y-102486266D01*
X87750625Y-102867219D02*
X87750625Y-102105314D01*
D11*
X106547619Y-110409800D02*
X106690476Y-110457419D01*
X106690476Y-110457419D02*
X106928571Y-110457419D01*
X106928571Y-110457419D02*
X107023809Y-110409800D01*
X107023809Y-110409800D02*
X107071428Y-110362180D01*
X107071428Y-110362180D02*
X107119047Y-110266942D01*
X107119047Y-110266942D02*
X107119047Y-110171704D01*
X107119047Y-110171704D02*
X107071428Y-110076466D01*
X107071428Y-110076466D02*
X107023809Y-110028847D01*
X107023809Y-110028847D02*
X106928571Y-109981228D01*
X106928571Y-109981228D02*
X106738095Y-109933609D01*
X106738095Y-109933609D02*
X106642857Y-109885990D01*
X106642857Y-109885990D02*
X106595238Y-109838371D01*
X106595238Y-109838371D02*
X106547619Y-109743133D01*
X106547619Y-109743133D02*
X106547619Y-109647895D01*
X106547619Y-109647895D02*
X106595238Y-109552657D01*
X106595238Y-109552657D02*
X106642857Y-109505038D01*
X106642857Y-109505038D02*
X106738095Y-109457419D01*
X106738095Y-109457419D02*
X106976190Y-109457419D01*
X106976190Y-109457419D02*
X107119047Y-109505038D01*
X107452381Y-109457419D02*
X107690476Y-110457419D01*
X107690476Y-110457419D02*
X107880952Y-109743133D01*
X107880952Y-109743133D02*
X108071428Y-110457419D01*
X108071428Y-110457419D02*
X108309524Y-109457419D01*
X108452381Y-110552657D02*
X109214285Y-110552657D01*
X109404762Y-110171704D02*
X109880952Y-110171704D01*
X109309524Y-110457419D02*
X109642857Y-109457419D01*
X109642857Y-109457419D02*
X109976190Y-110457419D01*
X110880952Y-110457419D02*
X110547619Y-109981228D01*
X110309524Y-110457419D02*
X110309524Y-109457419D01*
X110309524Y-109457419D02*
X110690476Y-109457419D01*
X110690476Y-109457419D02*
X110785714Y-109505038D01*
X110785714Y-109505038D02*
X110833333Y-109552657D01*
X110833333Y-109552657D02*
X110880952Y-109647895D01*
X110880952Y-109647895D02*
X110880952Y-109790752D01*
X110880952Y-109790752D02*
X110833333Y-109885990D01*
X110833333Y-109885990D02*
X110785714Y-109933609D01*
X110785714Y-109933609D02*
X110690476Y-109981228D01*
X110690476Y-109981228D02*
X110309524Y-109981228D01*
X111309524Y-110457419D02*
X111309524Y-109457419D01*
X111309524Y-109457419D02*
X111547619Y-109457419D01*
X111547619Y-109457419D02*
X111690476Y-109505038D01*
X111690476Y-109505038D02*
X111785714Y-109600276D01*
X111785714Y-109600276D02*
X111833333Y-109695514D01*
X111833333Y-109695514D02*
X111880952Y-109885990D01*
X111880952Y-109885990D02*
X111880952Y-110028847D01*
X111880952Y-110028847D02*
X111833333Y-110219323D01*
X111833333Y-110219323D02*
X111785714Y-110314561D01*
X111785714Y-110314561D02*
X111690476Y-110409800D01*
X111690476Y-110409800D02*
X111547619Y-110457419D01*
X111547619Y-110457419D02*
X111309524Y-110457419D01*
X112309524Y-109457419D02*
X112309524Y-110266942D01*
X112309524Y-110266942D02*
X112357143Y-110362180D01*
X112357143Y-110362180D02*
X112404762Y-110409800D01*
X112404762Y-110409800D02*
X112500000Y-110457419D01*
X112500000Y-110457419D02*
X112690476Y-110457419D01*
X112690476Y-110457419D02*
X112785714Y-110409800D01*
X112785714Y-110409800D02*
X112833333Y-110362180D01*
X112833333Y-110362180D02*
X112880952Y-110266942D01*
X112880952Y-110266942D02*
X112880952Y-109457419D01*
X113357143Y-110457419D02*
X113357143Y-109457419D01*
X113833333Y-110457419D02*
X113833333Y-109457419D01*
X113833333Y-109457419D02*
X114404761Y-110457419D01*
X114404761Y-110457419D02*
X114404761Y-109457419D01*
X115071428Y-109457419D02*
X115261904Y-109457419D01*
X115261904Y-109457419D02*
X115357142Y-109505038D01*
X115357142Y-109505038D02*
X115452380Y-109600276D01*
X115452380Y-109600276D02*
X115499999Y-109790752D01*
X115499999Y-109790752D02*
X115499999Y-110124085D01*
X115499999Y-110124085D02*
X115452380Y-110314561D01*
X115452380Y-110314561D02*
X115357142Y-110409800D01*
X115357142Y-110409800D02*
X115261904Y-110457419D01*
X115261904Y-110457419D02*
X115071428Y-110457419D01*
X115071428Y-110457419D02*
X114976190Y-110409800D01*
X114976190Y-110409800D02*
X114880952Y-110314561D01*
X114880952Y-110314561D02*
X114833333Y-110124085D01*
X114833333Y-110124085D02*
X114833333Y-109790752D01*
X114833333Y-109790752D02*
X114880952Y-109600276D01*
X114880952Y-109600276D02*
X114976190Y-109505038D01*
X114976190Y-109505038D02*
X115071428Y-109457419D01*
X116452380Y-110457419D02*
X115880952Y-110457419D01*
X116166666Y-110457419D02*
X116166666Y-109457419D01*
X116166666Y-109457419D02*
X116071428Y-109600276D01*
X116071428Y-109600276D02*
X115976190Y-109695514D01*
X115976190Y-109695514D02*
X115880952Y-109743133D01*
D12*
X94954819Y-90167142D02*
X93954819Y-90167142D01*
X93954819Y-90167142D02*
X93954819Y-89929047D01*
X93954819Y-89929047D02*
X94002438Y-89786190D01*
X94002438Y-89786190D02*
X94097676Y-89690952D01*
X94097676Y-89690952D02*
X94192914Y-89643333D01*
X94192914Y-89643333D02*
X94383390Y-89595714D01*
X94383390Y-89595714D02*
X94526247Y-89595714D01*
X94526247Y-89595714D02*
X94716723Y-89643333D01*
X94716723Y-89643333D02*
X94811961Y-89690952D01*
X94811961Y-89690952D02*
X94907200Y-89786190D01*
X94907200Y-89786190D02*
X94954819Y-89929047D01*
X94954819Y-89929047D02*
X94954819Y-90167142D01*
X94954819Y-88595714D02*
X94478628Y-88929047D01*
X94954819Y-89167142D02*
X93954819Y-89167142D01*
X93954819Y-89167142D02*
X93954819Y-88786190D01*
X93954819Y-88786190D02*
X94002438Y-88690952D01*
X94002438Y-88690952D02*
X94050057Y-88643333D01*
X94050057Y-88643333D02*
X94145295Y-88595714D01*
X94145295Y-88595714D02*
X94288152Y-88595714D01*
X94288152Y-88595714D02*
X94383390Y-88643333D01*
X94383390Y-88643333D02*
X94431009Y-88690952D01*
X94431009Y-88690952D02*
X94478628Y-88786190D01*
X94478628Y-88786190D02*
X94478628Y-89167142D01*
X94954819Y-88167142D02*
X93954819Y-88167142D01*
X93954819Y-87833809D02*
X94954819Y-87500476D01*
X94954819Y-87500476D02*
X93954819Y-87167143D01*
X94431009Y-86833809D02*
X94431009Y-86500476D01*
X94954819Y-86357619D02*
X94954819Y-86833809D01*
X94954819Y-86833809D02*
X93954819Y-86833809D01*
X93954819Y-86833809D02*
X93954819Y-86357619D01*
X94954819Y-85357619D02*
X94478628Y-85690952D01*
X94954819Y-85929047D02*
X93954819Y-85929047D01*
X93954819Y-85929047D02*
X93954819Y-85548095D01*
X93954819Y-85548095D02*
X94002438Y-85452857D01*
X94002438Y-85452857D02*
X94050057Y-85405238D01*
X94050057Y-85405238D02*
X94145295Y-85357619D01*
X94145295Y-85357619D02*
X94288152Y-85357619D01*
X94288152Y-85357619D02*
X94383390Y-85405238D01*
X94383390Y-85405238D02*
X94431009Y-85452857D01*
X94431009Y-85452857D02*
X94478628Y-85548095D01*
X94478628Y-85548095D02*
X94478628Y-85929047D01*
X94954819Y-84405238D02*
X94954819Y-84976666D01*
X94954819Y-84690952D02*
X93954819Y-84690952D01*
X93954819Y-84690952D02*
X94097676Y-84786190D01*
X94097676Y-84786190D02*
X94192914Y-84881428D01*
X94192914Y-84881428D02*
X94240533Y-84976666D01*
X104190476Y-78954819D02*
X104190476Y-77954819D01*
X104190476Y-77954819D02*
X104523809Y-78669104D01*
X104523809Y-78669104D02*
X104857142Y-77954819D01*
X104857142Y-77954819D02*
X104857142Y-78954819D01*
X105857142Y-78954819D02*
X105285714Y-78954819D01*
X105571428Y-78954819D02*
X105571428Y-77954819D01*
X105571428Y-77954819D02*
X105476190Y-78097676D01*
X105476190Y-78097676D02*
X105380952Y-78192914D01*
X105380952Y-78192914D02*
X105285714Y-78240533D01*
X167174819Y-96862142D02*
X166174819Y-96862142D01*
X166174819Y-96862142D02*
X166174819Y-96624047D01*
X166174819Y-96624047D02*
X166222438Y-96481190D01*
X166222438Y-96481190D02*
X166317676Y-96385952D01*
X166317676Y-96385952D02*
X166412914Y-96338333D01*
X166412914Y-96338333D02*
X166603390Y-96290714D01*
X166603390Y-96290714D02*
X166746247Y-96290714D01*
X166746247Y-96290714D02*
X166936723Y-96338333D01*
X166936723Y-96338333D02*
X167031961Y-96385952D01*
X167031961Y-96385952D02*
X167127200Y-96481190D01*
X167127200Y-96481190D02*
X167174819Y-96624047D01*
X167174819Y-96624047D02*
X167174819Y-96862142D01*
X167174819Y-95290714D02*
X166698628Y-95624047D01*
X167174819Y-95862142D02*
X166174819Y-95862142D01*
X166174819Y-95862142D02*
X166174819Y-95481190D01*
X166174819Y-95481190D02*
X166222438Y-95385952D01*
X166222438Y-95385952D02*
X166270057Y-95338333D01*
X166270057Y-95338333D02*
X166365295Y-95290714D01*
X166365295Y-95290714D02*
X166508152Y-95290714D01*
X166508152Y-95290714D02*
X166603390Y-95338333D01*
X166603390Y-95338333D02*
X166651009Y-95385952D01*
X166651009Y-95385952D02*
X166698628Y-95481190D01*
X166698628Y-95481190D02*
X166698628Y-95862142D01*
X167174819Y-94862142D02*
X166174819Y-94862142D01*
X166174819Y-94528809D02*
X167174819Y-94195476D01*
X167174819Y-94195476D02*
X166174819Y-93862143D01*
X166651009Y-93528809D02*
X166651009Y-93195476D01*
X167174819Y-93052619D02*
X167174819Y-93528809D01*
X167174819Y-93528809D02*
X166174819Y-93528809D01*
X166174819Y-93528809D02*
X166174819Y-93052619D01*
X167174819Y-92052619D02*
X166698628Y-92385952D01*
X167174819Y-92624047D02*
X166174819Y-92624047D01*
X166174819Y-92624047D02*
X166174819Y-92243095D01*
X166174819Y-92243095D02*
X166222438Y-92147857D01*
X166222438Y-92147857D02*
X166270057Y-92100238D01*
X166270057Y-92100238D02*
X166365295Y-92052619D01*
X166365295Y-92052619D02*
X166508152Y-92052619D01*
X166508152Y-92052619D02*
X166603390Y-92100238D01*
X166603390Y-92100238D02*
X166651009Y-92147857D01*
X166651009Y-92147857D02*
X166698628Y-92243095D01*
X166698628Y-92243095D02*
X166698628Y-92624047D01*
X166270057Y-91671666D02*
X166222438Y-91624047D01*
X166222438Y-91624047D02*
X166174819Y-91528809D01*
X166174819Y-91528809D02*
X166174819Y-91290714D01*
X166174819Y-91290714D02*
X166222438Y-91195476D01*
X166222438Y-91195476D02*
X166270057Y-91147857D01*
X166270057Y-91147857D02*
X166365295Y-91100238D01*
X166365295Y-91100238D02*
X166460533Y-91100238D01*
X166460533Y-91100238D02*
X166603390Y-91147857D01*
X166603390Y-91147857D02*
X167174819Y-91719285D01*
X167174819Y-91719285D02*
X167174819Y-91100238D01*
X100896666Y-106624819D02*
X100896666Y-107339104D01*
X100896666Y-107339104D02*
X100849047Y-107481961D01*
X100849047Y-107481961D02*
X100753809Y-107577200D01*
X100753809Y-107577200D02*
X100610952Y-107624819D01*
X100610952Y-107624819D02*
X100515714Y-107624819D01*
X101896666Y-107624819D02*
X101325238Y-107624819D01*
X101610952Y-107624819D02*
X101610952Y-106624819D01*
X101610952Y-106624819D02*
X101515714Y-106767676D01*
X101515714Y-106767676D02*
X101420476Y-106862914D01*
X101420476Y-106862914D02*
X101325238Y-106910533D01*
D11*
X97976190Y-101409800D02*
X98119047Y-101457419D01*
X98119047Y-101457419D02*
X98357142Y-101457419D01*
X98357142Y-101457419D02*
X98452380Y-101409800D01*
X98452380Y-101409800D02*
X98499999Y-101362180D01*
X98499999Y-101362180D02*
X98547618Y-101266942D01*
X98547618Y-101266942D02*
X98547618Y-101171704D01*
X98547618Y-101171704D02*
X98499999Y-101076466D01*
X98499999Y-101076466D02*
X98452380Y-101028847D01*
X98452380Y-101028847D02*
X98357142Y-100981228D01*
X98357142Y-100981228D02*
X98166666Y-100933609D01*
X98166666Y-100933609D02*
X98071428Y-100885990D01*
X98071428Y-100885990D02*
X98023809Y-100838371D01*
X98023809Y-100838371D02*
X97976190Y-100743133D01*
X97976190Y-100743133D02*
X97976190Y-100647895D01*
X97976190Y-100647895D02*
X98023809Y-100552657D01*
X98023809Y-100552657D02*
X98071428Y-100505038D01*
X98071428Y-100505038D02*
X98166666Y-100457419D01*
X98166666Y-100457419D02*
X98404761Y-100457419D01*
X98404761Y-100457419D02*
X98547618Y-100505038D01*
X98880952Y-100457419D02*
X99119047Y-101457419D01*
X99119047Y-101457419D02*
X99309523Y-100743133D01*
X99309523Y-100743133D02*
X99499999Y-101457419D01*
X99499999Y-101457419D02*
X99738095Y-100457419D01*
X99880952Y-101552657D02*
X100642856Y-101552657D01*
X101214285Y-100933609D02*
X101357142Y-100981228D01*
X101357142Y-100981228D02*
X101404761Y-101028847D01*
X101404761Y-101028847D02*
X101452380Y-101124085D01*
X101452380Y-101124085D02*
X101452380Y-101266942D01*
X101452380Y-101266942D02*
X101404761Y-101362180D01*
X101404761Y-101362180D02*
X101357142Y-101409800D01*
X101357142Y-101409800D02*
X101261904Y-101457419D01*
X101261904Y-101457419D02*
X100880952Y-101457419D01*
X100880952Y-101457419D02*
X100880952Y-100457419D01*
X100880952Y-100457419D02*
X101214285Y-100457419D01*
X101214285Y-100457419D02*
X101309523Y-100505038D01*
X101309523Y-100505038D02*
X101357142Y-100552657D01*
X101357142Y-100552657D02*
X101404761Y-100647895D01*
X101404761Y-100647895D02*
X101404761Y-100743133D01*
X101404761Y-100743133D02*
X101357142Y-100838371D01*
X101357142Y-100838371D02*
X101309523Y-100885990D01*
X101309523Y-100885990D02*
X101214285Y-100933609D01*
X101214285Y-100933609D02*
X100880952Y-100933609D01*
X101833333Y-101171704D02*
X102309523Y-101171704D01*
X101738095Y-101457419D02*
X102071428Y-100457419D01*
X102071428Y-100457419D02*
X102404761Y-101457419D01*
X102595238Y-100457419D02*
X103166666Y-100457419D01*
X102880952Y-101457419D02*
X102880952Y-100457419D01*
X104023809Y-101457419D02*
X103452381Y-101457419D01*
X103738095Y-101457419D02*
X103738095Y-100457419D01*
X103738095Y-100457419D02*
X103642857Y-100600276D01*
X103642857Y-100600276D02*
X103547619Y-100695514D01*
X103547619Y-100695514D02*
X103452381Y-100743133D01*
D12*
X90023809Y-100206009D02*
X90166666Y-100253628D01*
X90166666Y-100253628D02*
X90214285Y-100301247D01*
X90214285Y-100301247D02*
X90261904Y-100396485D01*
X90261904Y-100396485D02*
X90261904Y-100539342D01*
X90261904Y-100539342D02*
X90214285Y-100634580D01*
X90214285Y-100634580D02*
X90166666Y-100682200D01*
X90166666Y-100682200D02*
X90071428Y-100729819D01*
X90071428Y-100729819D02*
X89690476Y-100729819D01*
X89690476Y-100729819D02*
X89690476Y-99729819D01*
X89690476Y-99729819D02*
X90023809Y-99729819D01*
X90023809Y-99729819D02*
X90119047Y-99777438D01*
X90119047Y-99777438D02*
X90166666Y-99825057D01*
X90166666Y-99825057D02*
X90214285Y-99920295D01*
X90214285Y-99920295D02*
X90214285Y-100015533D01*
X90214285Y-100015533D02*
X90166666Y-100110771D01*
X90166666Y-100110771D02*
X90119047Y-100158390D01*
X90119047Y-100158390D02*
X90023809Y-100206009D01*
X90023809Y-100206009D02*
X89690476Y-100206009D01*
X90642857Y-100444104D02*
X91119047Y-100444104D01*
X90547619Y-100729819D02*
X90880952Y-99729819D01*
X90880952Y-99729819D02*
X91214285Y-100729819D01*
X91404762Y-99729819D02*
X91976190Y-99729819D01*
X91690476Y-100729819D02*
X91690476Y-99729819D01*
X92166667Y-99729819D02*
X92738095Y-99729819D01*
X92452381Y-100729819D02*
X92452381Y-99729819D01*
X93071429Y-100206009D02*
X93404762Y-100206009D01*
X93547619Y-100729819D02*
X93071429Y-100729819D01*
X93071429Y-100729819D02*
X93071429Y-99729819D01*
X93071429Y-99729819D02*
X93547619Y-99729819D01*
X94547619Y-100729819D02*
X94214286Y-100253628D01*
X93976191Y-100729819D02*
X93976191Y-99729819D01*
X93976191Y-99729819D02*
X94357143Y-99729819D01*
X94357143Y-99729819D02*
X94452381Y-99777438D01*
X94452381Y-99777438D02*
X94500000Y-99825057D01*
X94500000Y-99825057D02*
X94547619Y-99920295D01*
X94547619Y-99920295D02*
X94547619Y-100063152D01*
X94547619Y-100063152D02*
X94500000Y-100158390D01*
X94500000Y-100158390D02*
X94452381Y-100206009D01*
X94452381Y-100206009D02*
X94357143Y-100253628D01*
X94357143Y-100253628D02*
X93976191Y-100253628D01*
X95166667Y-100253628D02*
X95166667Y-100729819D01*
X94833334Y-99729819D02*
X95166667Y-100253628D01*
X95166667Y-100253628D02*
X95500000Y-99729819D01*
X96357143Y-100729819D02*
X95785715Y-100729819D01*
X96071429Y-100729819D02*
X96071429Y-99729819D01*
X96071429Y-99729819D02*
X95976191Y-99872676D01*
X95976191Y-99872676D02*
X95880953Y-99967914D01*
X95880953Y-99967914D02*
X95785715Y-100015533D01*
X159370476Y-102999819D02*
X159370476Y-101999819D01*
X159370476Y-101999819D02*
X159703809Y-102714104D01*
X159703809Y-102714104D02*
X160037142Y-101999819D01*
X160037142Y-101999819D02*
X160037142Y-102999819D01*
X160418095Y-101999819D02*
X161037142Y-101999819D01*
X161037142Y-101999819D02*
X160703809Y-102380771D01*
X160703809Y-102380771D02*
X160846666Y-102380771D01*
X160846666Y-102380771D02*
X160941904Y-102428390D01*
X160941904Y-102428390D02*
X160989523Y-102476009D01*
X160989523Y-102476009D02*
X161037142Y-102571247D01*
X161037142Y-102571247D02*
X161037142Y-102809342D01*
X161037142Y-102809342D02*
X160989523Y-102904580D01*
X160989523Y-102904580D02*
X160941904Y-102952200D01*
X160941904Y-102952200D02*
X160846666Y-102999819D01*
X160846666Y-102999819D02*
X160560952Y-102999819D01*
X160560952Y-102999819D02*
X160465714Y-102952200D01*
X160465714Y-102952200D02*
X160418095Y-102904580D01*
D11*
X155218095Y-74177419D02*
X155218095Y-74986942D01*
X155218095Y-74986942D02*
X155265714Y-75082180D01*
X155265714Y-75082180D02*
X155313333Y-75129800D01*
X155313333Y-75129800D02*
X155408571Y-75177419D01*
X155408571Y-75177419D02*
X155599047Y-75177419D01*
X155599047Y-75177419D02*
X155694285Y-75129800D01*
X155694285Y-75129800D02*
X155741904Y-75082180D01*
X155741904Y-75082180D02*
X155789523Y-74986942D01*
X155789523Y-74986942D02*
X155789523Y-74177419D01*
X156789523Y-75177419D02*
X156218095Y-75177419D01*
X156503809Y-75177419D02*
X156503809Y-74177419D01*
X156503809Y-74177419D02*
X156408571Y-74320276D01*
X156408571Y-74320276D02*
X156313333Y-74415514D01*
X156313333Y-74415514D02*
X156218095Y-74463133D01*
X128833333Y-73958609D02*
X129166666Y-73958609D01*
X129309523Y-74482419D02*
X128833333Y-74482419D01*
X128833333Y-74482419D02*
X128833333Y-73482419D01*
X128833333Y-73482419D02*
X129309523Y-73482419D01*
X129690476Y-74434800D02*
X129833333Y-74482419D01*
X129833333Y-74482419D02*
X130071428Y-74482419D01*
X130071428Y-74482419D02*
X130166666Y-74434800D01*
X130166666Y-74434800D02*
X130214285Y-74387180D01*
X130214285Y-74387180D02*
X130261904Y-74291942D01*
X130261904Y-74291942D02*
X130261904Y-74196704D01*
X130261904Y-74196704D02*
X130214285Y-74101466D01*
X130214285Y-74101466D02*
X130166666Y-74053847D01*
X130166666Y-74053847D02*
X130071428Y-74006228D01*
X130071428Y-74006228D02*
X129880952Y-73958609D01*
X129880952Y-73958609D02*
X129785714Y-73910990D01*
X129785714Y-73910990D02*
X129738095Y-73863371D01*
X129738095Y-73863371D02*
X129690476Y-73768133D01*
X129690476Y-73768133D02*
X129690476Y-73672895D01*
X129690476Y-73672895D02*
X129738095Y-73577657D01*
X129738095Y-73577657D02*
X129785714Y-73530038D01*
X129785714Y-73530038D02*
X129880952Y-73482419D01*
X129880952Y-73482419D02*
X130119047Y-73482419D01*
X130119047Y-73482419D02*
X130261904Y-73530038D01*
X130690476Y-74482419D02*
X130690476Y-73482419D01*
X130690476Y-73482419D02*
X131071428Y-73482419D01*
X131071428Y-73482419D02*
X131166666Y-73530038D01*
X131166666Y-73530038D02*
X131214285Y-73577657D01*
X131214285Y-73577657D02*
X131261904Y-73672895D01*
X131261904Y-73672895D02*
X131261904Y-73815752D01*
X131261904Y-73815752D02*
X131214285Y-73910990D01*
X131214285Y-73910990D02*
X131166666Y-73958609D01*
X131166666Y-73958609D02*
X131071428Y-74006228D01*
X131071428Y-74006228D02*
X130690476Y-74006228D01*
X132214285Y-74482419D02*
X131642857Y-74482419D01*
X131928571Y-74482419D02*
X131928571Y-73482419D01*
X131928571Y-73482419D02*
X131833333Y-73625276D01*
X131833333Y-73625276D02*
X131738095Y-73720514D01*
X131738095Y-73720514D02*
X131642857Y-73768133D01*
X127658884Y-112932419D02*
X127658884Y-113741942D01*
X127658884Y-113741942D02*
X127706503Y-113837180D01*
X127706503Y-113837180D02*
X127754122Y-113884800D01*
X127754122Y-113884800D02*
X127849360Y-113932419D01*
X127849360Y-113932419D02*
X128039836Y-113932419D01*
X128039836Y-113932419D02*
X128135074Y-113884800D01*
X128135074Y-113884800D02*
X128182693Y-113837180D01*
X128182693Y-113837180D02*
X128230312Y-113741942D01*
X128230312Y-113741942D02*
X128230312Y-112932419D01*
X128658884Y-113884800D02*
X128801741Y-113932419D01*
X128801741Y-113932419D02*
X129039836Y-113932419D01*
X129039836Y-113932419D02*
X129135074Y-113884800D01*
X129135074Y-113884800D02*
X129182693Y-113837180D01*
X129182693Y-113837180D02*
X129230312Y-113741942D01*
X129230312Y-113741942D02*
X129230312Y-113646704D01*
X129230312Y-113646704D02*
X129182693Y-113551466D01*
X129182693Y-113551466D02*
X129135074Y-113503847D01*
X129135074Y-113503847D02*
X129039836Y-113456228D01*
X129039836Y-113456228D02*
X128849360Y-113408609D01*
X128849360Y-113408609D02*
X128754122Y-113360990D01*
X128754122Y-113360990D02*
X128706503Y-113313371D01*
X128706503Y-113313371D02*
X128658884Y-113218133D01*
X128658884Y-113218133D02*
X128658884Y-113122895D01*
X128658884Y-113122895D02*
X128706503Y-113027657D01*
X128706503Y-113027657D02*
X128754122Y-112980038D01*
X128754122Y-112980038D02*
X128849360Y-112932419D01*
X128849360Y-112932419D02*
X129087455Y-112932419D01*
X129087455Y-112932419D02*
X129230312Y-112980038D01*
X129992217Y-113408609D02*
X130135074Y-113456228D01*
X130135074Y-113456228D02*
X130182693Y-113503847D01*
X130182693Y-113503847D02*
X130230312Y-113599085D01*
X130230312Y-113599085D02*
X130230312Y-113741942D01*
X130230312Y-113741942D02*
X130182693Y-113837180D01*
X130182693Y-113837180D02*
X130135074Y-113884800D01*
X130135074Y-113884800D02*
X130039836Y-113932419D01*
X130039836Y-113932419D02*
X129658884Y-113932419D01*
X129658884Y-113932419D02*
X129658884Y-112932419D01*
X129658884Y-112932419D02*
X129992217Y-112932419D01*
X129992217Y-112932419D02*
X130087455Y-112980038D01*
X130087455Y-112980038D02*
X130135074Y-113027657D01*
X130135074Y-113027657D02*
X130182693Y-113122895D01*
X130182693Y-113122895D02*
X130182693Y-113218133D01*
X130182693Y-113218133D02*
X130135074Y-113313371D01*
X130135074Y-113313371D02*
X130087455Y-113360990D01*
X130087455Y-113360990D02*
X129992217Y-113408609D01*
X129992217Y-113408609D02*
X129658884Y-113408609D01*
X130658884Y-113551466D02*
X131420789Y-113551466D01*
X132468407Y-113837180D02*
X132420788Y-113884800D01*
X132420788Y-113884800D02*
X132277931Y-113932419D01*
X132277931Y-113932419D02*
X132182693Y-113932419D01*
X132182693Y-113932419D02*
X132039836Y-113884800D01*
X132039836Y-113884800D02*
X131944598Y-113789561D01*
X131944598Y-113789561D02*
X131896979Y-113694323D01*
X131896979Y-113694323D02*
X131849360Y-113503847D01*
X131849360Y-113503847D02*
X131849360Y-113360990D01*
X131849360Y-113360990D02*
X131896979Y-113170514D01*
X131896979Y-113170514D02*
X131944598Y-113075276D01*
X131944598Y-113075276D02*
X132039836Y-112980038D01*
X132039836Y-112980038D02*
X132182693Y-112932419D01*
X132182693Y-112932419D02*
X132277931Y-112932419D01*
X132277931Y-112932419D02*
X132420788Y-112980038D01*
X132420788Y-112980038D02*
X132468407Y-113027657D01*
D12*
X101320476Y-96724819D02*
X101320476Y-95724819D01*
X101320476Y-95724819D02*
X101653809Y-96439104D01*
X101653809Y-96439104D02*
X101987142Y-95724819D01*
X101987142Y-95724819D02*
X101987142Y-96724819D01*
X102415714Y-95820057D02*
X102463333Y-95772438D01*
X102463333Y-95772438D02*
X102558571Y-95724819D01*
X102558571Y-95724819D02*
X102796666Y-95724819D01*
X102796666Y-95724819D02*
X102891904Y-95772438D01*
X102891904Y-95772438D02*
X102939523Y-95820057D01*
X102939523Y-95820057D02*
X102987142Y-95915295D01*
X102987142Y-95915295D02*
X102987142Y-96010533D01*
X102987142Y-96010533D02*
X102939523Y-96153390D01*
X102939523Y-96153390D02*
X102368095Y-96724819D01*
X102368095Y-96724819D02*
X102987142Y-96724819D01*
%TO.C,SW_ARDUINO1*%
D13*
X115570000Y-113860000D02*
X107350000Y-113860000D01*
X107350000Y-111140000D01*
X115570000Y-111140000D01*
X115570000Y-113860000D01*
%TO.C,DRIVER1*%
X115870000Y-88310000D02*
G75*
G02*
X115870000Y-86310000I0J1000000D01*
G01*
X95430000Y-89960000D02*
X115870000Y-89960000D01*
X115870000Y-89960000D02*
X115870000Y-88310000D01*
X115870000Y-86310000D02*
X115870000Y-84660000D01*
X95430000Y-84660000D02*
X95430000Y-89960000D01*
X115870000Y-84660000D02*
X95430000Y-84660000D01*
%TO.C,M1*%
X106645000Y-76405000D02*
X114385000Y-76405000D01*
X109245000Y-79005000D02*
X106645000Y-79005000D01*
X106645000Y-79005000D02*
X106645000Y-76405000D01*
X114385000Y-81605000D02*
X114385000Y-76405000D01*
X109245000Y-81605000D02*
X109245000Y-79005000D01*
X109245000Y-81605000D02*
X114385000Y-81605000D01*
X107975000Y-81605000D02*
X106645000Y-81605000D01*
X106645000Y-81605000D02*
X106645000Y-80275000D01*
%TO.C,DRIVER2*%
X165720000Y-91355000D02*
X145280000Y-91355000D01*
X145280000Y-91355000D02*
X145280000Y-96655000D01*
X165720000Y-93005000D02*
X165720000Y-91355000D01*
X165720000Y-96655000D02*
X165720000Y-95005000D01*
X145280000Y-96655000D02*
X165720000Y-96655000D01*
X165720000Y-95005000D02*
G75*
G02*
X165720000Y-93005000I0J1000000D01*
G01*
%TO.C,J1*%
X103830000Y-108170000D02*
X103830000Y-113370000D01*
X101230000Y-110770000D02*
X101230000Y-108170000D01*
X101230000Y-108170000D02*
X103830000Y-108170000D01*
X98630000Y-113370000D02*
X103830000Y-113370000D01*
X98630000Y-110770000D02*
X101230000Y-110770000D01*
X98630000Y-110770000D02*
X98630000Y-113370000D01*
X98630000Y-109500000D02*
X98630000Y-108170000D01*
X98630000Y-108170000D02*
X99960000Y-108170000D01*
%TO.C,SW_BAT1*%
X105110000Y-104860000D02*
X96890000Y-104860000D01*
X96890000Y-102140000D01*
X105110000Y-102140000D01*
X105110000Y-104860000D01*
%TO.C,BATTERY1*%
X94330000Y-103770000D02*
X94330000Y-106370000D01*
X91670000Y-106370000D02*
X94330000Y-106370000D01*
X91670000Y-103770000D02*
X94330000Y-103770000D01*
X91670000Y-103770000D02*
X91670000Y-106370000D01*
X91670000Y-102500000D02*
X91670000Y-101170000D01*
X91670000Y-101170000D02*
X93000000Y-101170000D01*
%TO.C,M3*%
X159180000Y-99945000D02*
X159180000Y-101275000D01*
X157850000Y-99945000D02*
X159180000Y-99945000D01*
X156580000Y-99945000D02*
X151440000Y-99945000D01*
X156580000Y-99945000D02*
X156580000Y-102545000D01*
X151440000Y-99945000D02*
X151440000Y-105145000D01*
X159180000Y-102545000D02*
X159180000Y-105145000D01*
X156580000Y-102545000D02*
X159180000Y-102545000D01*
X159180000Y-105145000D02*
X151440000Y-105145000D01*
%TO.C,U1*%
D11*
X147855000Y-67300000D02*
X163605000Y-67300000D01*
X163605000Y-87450000D01*
X147855000Y-87450000D01*
X147855000Y-67300000D01*
%TO.C,ESP1*%
X117145000Y-66905000D02*
X143855000Y-66905000D01*
X143855000Y-116095000D01*
X117145000Y-116095000D01*
X117145000Y-66905000D01*
X125740000Y-72355000D02*
X136030000Y-72355000D01*
X136030000Y-82735000D01*
X125740000Y-82735000D01*
X125740000Y-72355000D01*
X127355000Y-112205000D02*
X134125000Y-112205000D01*
X134125000Y-115915000D01*
X127355000Y-115915000D01*
X127355000Y-112205000D01*
D13*
%TO.C,M2*%
X103130000Y-93670000D02*
X110870000Y-93670000D01*
X105730000Y-96270000D02*
X103130000Y-96270000D01*
X103130000Y-96270000D02*
X103130000Y-93670000D01*
X110870000Y-98870000D02*
X110870000Y-93670000D01*
X105730000Y-98870000D02*
X105730000Y-96270000D01*
X105730000Y-98870000D02*
X110870000Y-98870000D01*
X104460000Y-98870000D02*
X103130000Y-98870000D01*
X103130000Y-98870000D02*
X103130000Y-97540000D01*
%TD*%
M02*
